<?xml version="1.0" encoding="utf-8"?>
<!-- Generator: Adobe Illustrator 25.4.1, SVG Export Plug-In . SVG Version: 6.00 Build 0)  -->
<svg version="1.1" id="Layer_1" xmlns="http://www.w3.org/2000/svg" xmlns:xlink="http://www.w3.org/1999/xlink" x="0px" y="0px"
	 viewBox="0 0 269 59" style="enable-background:new 0 0 269 59;" xml:space="preserve">
<style type="text/css">
	.st0{fill:#2563EB;}
	.st1{fill:none;}
	.st2{enable-background:new    ;}
</style>
<g>
	<path class="st0" d="M6.9,28.6c0-6.9,0-13.8,0-20.6c0-1.6,0.6-2,2-1.9c5.5,0,4.5-0.3,4.5,4.4c0.1,6.8,0.1,13.7,0,20.5
		c0,1.6,0.5,2,2,2c6.4-0.1,12.7-0.1,19.1,0c1.5,0,2-0.5,2-2c-0.1-5.5,0-11,0-16.6c0-2.3,0-2.3,2.4-2.3c6.8,0,13.5,0,20.3,0
		c8.4,0,13.2,4.4,13.5,12.8c0.2,8.1,0,16.3,0.1,24.4c0,1.4-0.6,1.9-1.9,1.9c-5.4-0.1-4.6,0.5-4.6-4.5c0-4.3,0-4.3-4.3-4.3
		c-15.4,0-30.7,0-46.1,0c-2.3,0-2.3,0-2.4,2.3c0,1.6,0,3.3,0,4.9c0,1-0.5,1.5-1.4,1.5c-0.1,0-0.1,0-0.2,0C7,51.5,7,51.5,7,46.7
		C6.9,40.7,6.9,34.7,6.9,28.6z"/>
	<path class="st0" d="M15.8,21.1c0-5.1,4-9.1,9.1-9.1s9.2,4.1,9.2,9.2c0,4.8-4.3,9.1-9.2,9.1C19.8,30.4,15.8,26.3,15.8,21.1z"/>
</g>
<rect x="79.5" y="12.7" class="st1" width="182.7" height="40.3"/>
<g>
	<g class="st2">
		<path class="st0" d="M90.5,42.7c-2.4,0-4.5-0.4-6.3-1.1S81,39.8,80,38.3c-1-1.5-1.5-3.3-1.6-5.6H85c0.1,0.9,0.3,1.7,0.8,2.4
			s1.1,1.1,1.9,1.4c0.8,0.3,1.7,0.5,2.8,0.5c1,0,1.8-0.1,2.5-0.4c0.7-0.3,1.2-0.6,1.6-1.1s0.6-1,0.6-1.6c0-0.6-0.2-1-0.5-1.4
			c-0.3-0.4-0.9-0.7-1.6-1c-0.7-0.3-1.6-0.6-2.6-0.8l-3.1-0.7c-2.5-0.6-4.5-1.5-5.9-2.8c-1.4-1.3-2.1-3-2.1-5.2
			c0-1.8,0.5-3.4,1.5-4.7s2.3-2.4,4-3.2c1.7-0.7,3.6-1.1,5.8-1.1c2.3,0,4.2,0.4,5.9,1.1c1.7,0.8,2.9,1.8,3.8,3.2
			c0.9,1.4,1.4,2.9,1.4,4.7H95c-0.1-1.1-0.5-1.9-1.3-2.5c-0.8-0.6-1.8-0.9-3.2-0.9c-0.9,0-1.7,0.1-2.3,0.4s-1.1,0.6-1.4,1
			s-0.5,0.9-0.5,1.5c0,0.6,0.2,1.1,0.5,1.5s0.9,0.8,1.5,1c0.7,0.3,1.4,0.5,2.3,0.7l2.5,0.6c1.4,0.3,2.7,0.7,3.8,1.2
			c1.1,0.5,2,1.1,2.8,1.8s1.3,1.5,1.7,2.5c0.4,0.9,0.6,2,0.6,3.1c0,1.8-0.5,3.4-1.4,4.7s-2.2,2.3-3.9,3C95,42.3,92.9,42.7,90.5,42.7
			z"/>
		<path class="st0" d="M117.4,20.5v5.1h-13.6v-5.1H117.4z M106.7,15.3h6.8v20.4c0,0.6,0.1,1,0.4,1.3s0.7,0.4,1.3,0.4
			c0.2,0,0.6,0,1-0.1c0.4-0.1,0.7-0.1,0.9-0.2l0.9,5c-0.8,0.2-1.5,0.4-2.2,0.4c-0.7,0.1-1.4,0.1-2,0.1c-2.3,0-4.1-0.5-5.3-1.6
			c-1.2-1.1-1.8-2.7-1.8-4.8V15.3z"/>
		<path class="st0" d="M127,42.7c-1.4,0-2.6-0.2-3.7-0.7c-1.1-0.5-1.9-1.2-2.5-2.1c-0.6-1-0.9-2.2-0.9-3.6c0-1.2,0.2-2.2,0.6-3.1
			c0.4-0.8,1-1.5,1.8-2c0.8-0.5,1.6-0.9,2.6-1.2c1-0.3,2-0.5,3.1-0.5c1.2-0.1,2.2-0.2,3-0.3c0.8-0.1,1.3-0.3,1.7-0.6s0.5-0.6,0.5-1
			v-0.1c0-0.5-0.1-0.9-0.4-1.3s-0.6-0.6-1-0.8c-0.4-0.2-1-0.3-1.6-0.3s-1.2,0.1-1.7,0.3s-0.9,0.4-1.2,0.8s-0.5,0.7-0.7,1.2l-6.2-0.8
			c0.3-1.2,0.8-2.3,1.7-3.3s1.9-1.7,3.3-2.2c1.4-0.5,3-0.8,4.8-0.8c1.4,0,2.6,0.2,3.8,0.5c1.2,0.3,2.2,0.8,3.1,1.4s1.6,1.4,2.1,2.3
			s0.7,1.9,0.7,3.1v14.8h-6.4v-3.1h-0.2c-0.4,0.8-0.9,1.4-1.5,1.9s-1.3,0.9-2.1,1.2S128.1,42.7,127,42.7z M129.1,38.2
			c0.8,0,1.5-0.2,2.1-0.5c0.6-0.3,1.1-0.7,1.5-1.3c0.4-0.5,0.5-1.2,0.5-1.9v-2.1c-0.2,0.1-0.4,0.2-0.7,0.3s-0.6,0.2-1,0.2
			s-0.7,0.1-1.1,0.2s-0.7,0.1-1,0.2c-0.7,0.1-1.2,0.2-1.7,0.5s-0.8,0.5-1.1,0.9c-0.2,0.4-0.4,0.8-0.4,1.3c0,0.5,0.1,0.9,0.4,1.2
			c0.2,0.3,0.6,0.6,1,0.8C128.1,38.1,128.6,38.2,129.1,38.2z"/>
		<path class="st0" d="M144.4,50l1.5-5l0.9,0.2c0.8,0.2,1.5,0.3,2.2,0.2s1.1-0.3,1.4-0.7s0.5-0.8,0.4-1.4l0-0.9l-8.1-21.9h7.2
			l3.3,10.7c0.4,1.5,0.8,2.9,1,4.4s0.6,3.1,0.9,4.7h-1.4c0.4-1.7,0.7-3.3,1.1-4.8s0.8-2.9,1.2-4.4l3.5-10.7h7.1l-9.2,24.1
			c-0.4,1.2-1,2.2-1.7,3.1s-1.6,1.6-2.7,2.1s-2.5,0.8-4.1,0.8c-0.8,0-1.6-0.1-2.4-0.2S144.9,50.2,144.4,50z"/>
		<path class="st0" d="M180.4,42.7c-2.4,0-4.5-0.4-6.3-1.1s-3.2-1.8-4.2-3.3s-1.5-3.3-1.6-5.6h6.6c0.1,0.9,0.3,1.7,0.8,2.4
			s1.1,1.1,1.9,1.4s1.7,0.5,2.8,0.5c1,0,1.8-0.1,2.5-0.4s1.2-0.6,1.6-1.1s0.6-1,0.6-1.6c0-0.6-0.2-1-0.5-1.4s-0.9-0.7-1.6-1
			s-1.6-0.6-2.6-0.8l-3.1-0.7c-2.5-0.6-4.5-1.5-5.9-2.8s-2.1-3-2.1-5.2c0-1.8,0.5-3.4,1.5-4.7s2.3-2.4,4-3.2
			c1.7-0.7,3.6-1.1,5.8-1.1c2.3,0,4.2,0.4,5.9,1.1s2.9,1.8,3.8,3.2s1.4,2.9,1.4,4.7h-6.6c-0.1-1.1-0.5-1.9-1.3-2.5s-1.8-0.9-3.2-0.9
			c-0.9,0-1.7,0.1-2.3,0.4s-1.1,0.6-1.4,1s-0.5,0.9-0.5,1.5c0,0.6,0.2,1.1,0.5,1.5s0.9,0.8,1.5,1s1.4,0.5,2.3,0.7l2.5,0.6
			c1.4,0.3,2.7,0.7,3.8,1.2s2,1.1,2.8,1.8s1.3,1.5,1.7,2.5c0.4,0.9,0.6,2,0.6,3.1c0,1.8-0.5,3.4-1.4,4.7s-2.2,2.3-3.9,3
			S182.9,42.7,180.4,42.7z"/>
		<path class="st0" d="M202.4,29.8v12.5h-6.8V20.5h6.4l0.1,5.5h-0.3c0.5-1.7,1.4-3.1,2.5-4.2s2.7-1.6,4.6-1.6c1.5,0,2.9,0.3,4,1
			s2,1.6,2.6,2.9s0.9,2.7,0.9,4.3v13.9h-6.8V29.7c0-1.2-0.3-2.2-0.9-2.9s-1.5-1-2.6-1c-0.7,0-1.4,0.2-1.9,0.5s-1,0.8-1.3,1.4
			S202.4,29,202.4,29.8z"/>
		<path class="st0" d="M227.1,42.7c-1.4,0-2.6-0.2-3.7-0.7s-1.9-1.2-2.5-2.1s-0.9-2.2-0.9-3.6c0-1.2,0.2-2.2,0.6-3.1s1-1.5,1.8-2
			s1.6-0.9,2.6-1.2c1-0.3,2-0.5,3.1-0.5c1.2-0.1,2.2-0.2,3-0.3s1.3-0.3,1.7-0.6s0.5-0.6,0.5-1v-0.1c0-0.5-0.1-0.9-0.4-1.3
			s-0.6-0.6-1-0.8s-1-0.3-1.6-0.3s-1.2,0.1-1.7,0.3s-0.9,0.4-1.2,0.8s-0.5,0.7-0.7,1.2l-6.2-0.8c0.3-1.2,0.8-2.3,1.7-3.3
			s1.9-1.7,3.3-2.2s3-0.8,4.8-0.8c1.4,0,2.6,0.2,3.8,0.5s2.2,0.8,3.1,1.4s1.6,1.4,2.1,2.3s0.7,1.9,0.7,3.1v14.8h-6.4v-3.1h-0.2
			c-0.4,0.8-0.9,1.4-1.5,1.9s-1.3,0.9-2.1,1.2S228.1,42.7,227.1,42.7z M229.2,38.2c0.8,0,1.5-0.2,2.1-0.5s1.1-0.7,1.5-1.3
			s0.5-1.2,0.5-1.9v-2.1c-0.2,0.1-0.4,0.2-0.7,0.3s-0.6,0.2-1,0.2s-0.7,0.1-1.1,0.2s-0.7,0.1-1,0.2c-0.7,0.1-1.2,0.2-1.7,0.5
			s-0.8,0.5-1.1,0.9s-0.4,0.8-0.4,1.3c0,0.5,0.1,0.9,0.4,1.2s0.6,0.6,1,0.8S228.6,38.2,229.2,38.2z"/>
		<path class="st0" d="M244.5,50.5v-30h6.7v3.8h0.2c0.3-0.7,0.7-1.3,1.2-1.9s1.2-1.1,2-1.5s1.8-0.6,3-0.6c1.5,0,3,0.4,4.3,1.2
			s2.4,2,3.2,3.7s1.2,3.8,1.2,6.3c0,2.5-0.4,4.5-1.2,6.2s-1.8,2.9-3.2,3.8s-2.8,1.3-4.4,1.3c-1.1,0-2.1-0.2-2.9-0.6s-1.5-0.8-2-1.4
			s-0.9-1.2-1.2-1.9h-0.2v11.7H244.5z M255.3,37.3c0.9,0,1.6-0.2,2.2-0.7s1.1-1.2,1.4-2.1s0.5-1.9,0.5-3.1c0-1.2-0.2-2.2-0.5-3.1
			s-0.8-1.6-1.4-2.1s-1.3-0.7-2.2-0.7c-0.9,0-1.6,0.2-2.2,0.7s-1.1,1.2-1.4,2s-0.5,1.9-0.5,3.1c0,1.2,0.2,2.2,0.5,3.1
			s0.8,1.6,1.4,2.1S254.5,37.3,255.3,37.3z"/>
	</g>
</g>
</svg>
