<svg id="Layer_1" data-name="Layer 1" xmlns="http://www.w3.org/2000/svg" viewBox="0 0 255.3 46.95"><defs><style>.cls-1,.cls-2{fill:#e16565;}.cls-2{font-size:40px;font-family:SegoeUIBlack, Segoe UI;}</style></defs><path class="cls-1" d="M6.88,28.62c0-6.88,0-13.77,0-20.65,0-1.55.55-2,2-1.95,5.53.05,4.47-.28,4.51,4.4q.09,10.25,0,20.48c0,1.6.5,2,2,2,6.37-.08,12.74-.07,19.11,0,1.5,0,2-.47,2-1.95-.07-5.52,0-11,0-16.56,0-2.32.05-2.34,2.4-2.34H59.12c8.43,0,13.25,4.43,13.46,12.85.21,8.13,0,16.27.07,24.4,0,1.42-.59,1.89-2,1.88-5.38-.06-4.58.47-4.62-4.47,0-4.34,0-4.34-4.32-4.34H15.69c-2.35,0-2.35,0-2.36,2.33,0,1.65,0,3.3,0,4.95,0,1-.46,1.45-1.42,1.49h-.17c-4.87.45-4.87.45-4.87-4.44Z" transform="translate(-6.85 -6.02)"/><path class="cls-1" d="M15.76,21.13a9,9,0,0,1,9.08-9.08,9.28,9.28,0,0,1,9.24,9.23,9.46,9.46,0,0,1-9.22,9.13A9.1,9.1,0,0,1,15.76,21.13Z" transform="translate(-6.85 -6.02)"/><text class="cls-2" transform="translate(72.62 36.28)">StaySnap</text></svg>